<svg width="88" height="27" viewBox="0 0 88 27" fill="none" xmlns="http://www.w3.org/2000/svg">
<rect x="1" y="1" width="25" height="25" rx="5" fill="#9AD1DA"/>
<path d="M7.92898 19L4.74716 7.36364H6.17898L8.6108 16.8409H8.72443L11.2017 7.36364H12.7926L15.2699 16.8409H15.3835L17.8153 7.36364H19.2472L16.0653 19H14.6108L12.0426 9.72727H11.9517L9.38352 19H7.92898Z" fill="white"/>
<path d="M10.929 21L7.74716 9.36364H9.17898L11.6108 18.8409H11.7244L14.2017 9.36364H15.7926L18.2699 18.8409H18.3835L20.8153 9.36364H22.2472L19.0653 21H17.6108L15.0426 11.7273H14.9517L12.3835 21H10.929Z" fill="#3BC3D8"/>
<path d="M30.2802 18.568C30.1122 18.568 30.0282 18.4607 30.0282 18.246C30.0282 18.0407 30.1122 17.7793 30.2802 17.462L32.9822 13.57C33.8129 12.3753 34.4289 11.3953 34.8302 10.63C35.2315 9.86467 35.4322 9.32333 35.4322 9.006C35.4322 8.85667 35.3762 8.74467 35.2642 8.67C35.1522 8.59533 35.0215 8.544 34.8722 8.516C34.7229 8.488 34.5829 8.474 34.4522 8.474C33.6589 8.474 32.5529 8.95933 31.1342 9.93C30.7329 10.2007 30.3642 10.504 30.0282 10.84C29.6922 11.176 29.3795 11.5353 29.0902 11.918C28.5302 12.6833 28.2502 13.3273 28.2502 13.85C28.2502 14.2513 28.4369 14.494 28.8102 14.578C28.9502 14.6153 29.1089 14.634 29.2862 14.634C29.6222 14.634 29.9582 14.55 30.2942 14.382C30.6302 14.214 30.9569 13.9993 31.2742 13.738C31.5169 13.5327 31.6569 13.43 31.6942 13.43C31.7315 13.43 31.7455 13.4627 31.7362 13.528C31.6802 13.724 31.5449 13.9107 31.3302 14.088C31.1155 14.2653 30.8589 14.4287 30.5602 14.578C30.2615 14.718 29.9582 14.83 29.6502 14.914C29.3515 14.9887 29.0855 15.026 28.8522 15.026C28.4789 15.026 28.1522 14.9327 27.8722 14.746C27.5922 14.55 27.4522 14.2653 27.4522 13.892C27.4522 13.3227 27.7835 12.6227 28.4462 11.792C29.0809 10.9893 29.8649 10.2753 30.7982 9.65C31.1809 9.38867 31.6289 9.14133 32.1422 8.908C32.6555 8.66533 33.1735 8.46933 33.6962 8.32C34.2189 8.16133 34.6855 8.082 35.0962 8.082C35.8335 8.082 36.2022 8.32467 36.2022 8.81C36.2022 9.398 35.7589 10.4107 34.8722 11.848C34.2469 12.8373 33.4209 14.0133 32.3942 15.376C31.5449 16.5053 31.1155 17.07 31.1062 17.07C31.1342 17.07 31.5822 16.5893 32.4502 15.628C32.9822 15.0307 33.4815 14.4987 33.9482 14.032C34.4242 13.556 34.8629 13.1407 35.2642 12.786C35.4602 12.6087 35.6982 12.3893 35.9782 12.128C36.2582 11.8573 36.5849 11.5447 36.9582 11.19C37.2849 10.8913 37.6022 10.6207 37.9102 10.378C38.2275 10.1353 38.5169 10.014 38.7782 10.014C39.0489 10.014 39.2262 10.0793 39.3102 10.21C38.4515 11.274 37.6489 12.576 36.9022 14.116C36.3702 15.2173 36.1042 16.0527 36.1042 16.622C36.1042 16.958 36.1929 17.2007 36.3702 17.35C36.5475 17.4993 36.7809 17.574 37.0702 17.574C37.3875 17.574 37.7189 17.4853 38.0642 17.308C38.4189 17.1307 38.7689 16.902 39.1142 16.622C39.4595 16.342 39.7815 16.048 40.0802 15.74C41.1535 14.6573 42.0075 13.486 42.6422 12.226C43.1369 11.2367 43.3842 10.448 43.3842 9.86C43.3842 9.804 43.3795 9.75267 43.3702 9.706C43.3702 9.65933 43.3655 9.61733 43.3562 9.58C43.1602 9.58 42.9502 9.47733 42.7262 9.272C42.5862 9.16 42.5162 9.04333 42.5162 8.922C42.5162 8.81 42.5629 8.71667 42.6562 8.642C42.7495 8.56733 42.8569 8.53 42.9782 8.53C43.1555 8.53 43.2862 8.60933 43.3702 8.768C43.4075 8.84267 43.4822 8.936 43.5942 9.048C43.6689 9.12267 43.7015 9.17867 43.6922 9.216C43.7482 9.3 43.8415 9.342 43.9722 9.342C44.1029 9.342 44.2242 9.286 44.3362 9.174C44.4575 9.062 44.5882 9.006 44.7282 9.006C44.8029 9.006 44.8402 9.034 44.8402 9.09C44.8402 9.19267 44.7515 9.29067 44.5742 9.384C44.4809 9.44933 44.3689 9.49133 44.2382 9.51C44.1635 9.51933 44.0889 9.52867 44.0142 9.538C43.9395 9.538 43.8649 9.52867 43.7902 9.51C43.9022 9.88333 43.9582 10.1587 43.9582 10.336C43.9582 11.0827 43.6035 12.0487 42.8942 13.234C42.5395 13.8313 42.1335 14.396 41.6762 14.928C41.2189 15.46 40.7055 15.9593 40.1362 16.426C39.0069 17.378 38.0035 17.854 37.1262 17.854C36.1649 17.854 35.6842 17.406 35.6842 16.51C35.6842 16.09 35.7729 15.614 35.9502 15.082C36.1275 14.5407 36.3375 14.004 36.5802 13.472L37.5882 11.274C37.1775 11.5913 36.8415 11.8527 36.5802 12.058C36.3282 12.254 36.1135 12.422 35.9362 12.562C35.7682 12.702 35.6049 12.8467 35.4462 12.996C35.2969 13.136 35.1149 13.3087 34.9002 13.514C34.6669 13.7473 34.3542 14.0833 33.9622 14.522C33.5702 14.9513 33.1129 15.488 32.5902 16.132L30.9662 18.12C30.8729 18.232 30.7655 18.3347 30.6442 18.428C30.5229 18.5213 30.4015 18.568 30.2802 18.568ZM43.7309 17.028C43.4976 17.028 43.3156 16.9207 43.1849 16.706C43.0542 16.482 42.9889 16.2673 42.9889 16.062C42.9889 15.502 43.3949 14.718 44.2069 13.71C45.0282 12.6927 45.6909 12.184 46.1949 12.184C46.6709 12.184 46.9089 12.436 46.9089 12.94C46.9089 13.0147 46.8996 13.094 46.8809 13.178C46.8716 13.262 46.8576 13.3507 46.8389 13.444C46.8576 13.472 46.9042 13.486 46.9789 13.486C47.2309 13.486 47.5296 13.3973 47.8749 13.22C47.8656 13.3787 47.4969 13.6073 46.7689 13.906C46.8716 14.214 46.5636 14.802 45.8449 15.67C45.1076 16.5753 44.4776 17.028 43.9549 17.028H43.7309ZM43.9829 16.608C44.3842 16.608 44.8976 16.2393 45.5229 15.502C46.1296 14.7833 46.4329 14.2653 46.4329 13.948C46.2836 13.864 46.0969 13.6493 45.8729 13.304C45.5556 13.304 45.0982 13.6867 44.5009 14.452C43.9129 15.1987 43.6282 15.7727 43.6469 16.174C43.6562 16.4633 43.7682 16.608 43.9829 16.608ZM49.9224 17.07C49.5211 17.07 49.2457 16.9673 49.0964 16.762C48.9471 16.5473 48.8724 16.2627 48.8724 15.908C48.8724 15.516 48.9937 15.0493 49.2364 14.508C49.3297 14.2933 49.4277 14.102 49.5304 13.934C49.6331 13.7567 49.7404 13.5933 49.8524 13.444C49.8151 13.4533 49.7824 13.458 49.7544 13.458C49.7264 13.458 49.6984 13.458 49.6704 13.458C49.4464 13.458 49.2597 13.2993 49.1104 12.982L48.0744 14.326C47.5237 15.0447 47.1877 15.404 47.0664 15.404C47.0197 15.404 46.9964 15.3853 46.9964 15.348C46.9964 15.3013 47.0197 15.2407 47.0664 15.166C47.0944 15.11 47.1504 15.0353 47.2344 14.942C47.5891 14.5313 47.9157 14.1253 48.2144 13.724C48.5131 13.3227 48.7604 12.9307 48.9564 12.548C49.1711 11.736 49.4417 11.33 49.7684 11.33C49.9831 11.33 50.0904 11.428 50.0904 11.624C50.0904 11.8013 49.9737 12.0347 49.7404 12.324C49.5164 12.6133 49.4044 12.7627 49.4044 12.772C49.4044 12.968 49.5491 13.066 49.8384 13.066C50.0064 13.066 50.1931 13.0053 50.3984 12.884L50.7624 12.66C50.7811 12.6507 50.8091 12.646 50.8464 12.646C50.9584 12.646 51.0564 12.6927 51.1404 12.786C51.2244 12.8793 51.2524 12.9633 51.2244 13.038L50.2584 14.256C49.6611 15.0213 49.3624 15.6373 49.3624 16.104C49.3624 16.524 49.5677 16.734 49.9784 16.734C50.2584 16.734 50.5571 16.65 50.8744 16.482C51.2011 16.314 51.5137 16.1087 51.8124 15.866C52.1204 15.614 52.3771 15.3713 52.5824 15.138L52.9184 14.746C52.9371 14.7273 52.9604 14.704 52.9884 14.676C53.0164 14.648 53.0397 14.634 53.0584 14.634C53.1237 14.634 53.1564 14.6667 53.1564 14.732C53.1564 14.7507 53.1471 14.7833 53.1284 14.83C53.1097 14.8767 53.0771 14.928 53.0304 14.984L52.5824 15.488C52.3677 15.7307 52.1017 15.978 51.7844 16.23C51.4764 16.4727 51.1544 16.6733 50.8184 16.832C50.4917 16.9907 50.1931 17.07 49.9224 17.07ZM55.4462 17.168C55.1382 17.168 54.8628 17.0793 54.6202 16.902C54.3868 16.7247 54.1815 16.5007 54.0042 16.23C53.8362 15.9593 53.6915 15.6887 53.5702 15.418C53.5048 15.502 53.4348 15.6093 53.3602 15.74C53.2948 15.8707 53.2155 16.0247 53.1222 16.202L52.6882 17.07C52.3522 16.9393 52.1842 16.762 52.1842 16.538C52.1842 16.1367 52.7955 15.0213 54.0182 13.192C55.2035 11.4187 56.0202 10.3733 56.4682 10.056C56.5148 10.028 56.5895 10.014 56.6922 10.014C56.9815 10.014 57.1262 10.0887 57.1262 10.238C57.1262 10.266 57.0608 10.3687 56.9302 10.546C56.7995 10.714 56.6362 10.9193 56.4402 11.162C56.2442 11.4047 56.0435 11.652 55.8382 11.904C55.6422 12.1467 55.4695 12.3613 55.3202 12.548C55.1708 12.7253 55.0868 12.8373 55.0682 12.884C55.9175 12.4453 56.5942 12.226 57.0982 12.226C57.2942 12.226 57.4715 12.282 57.6302 12.394C57.7982 12.506 57.9288 12.6413 58.0222 12.8C58.1155 12.9587 58.1528 13.1127 58.1342 13.262C58.0595 13.794 57.6862 14.2327 57.0142 14.578C56.4728 14.8673 55.9782 15.012 55.5302 15.012C55.0448 15.012 54.7088 14.9513 54.5222 14.83C54.4662 14.8207 54.4195 14.8347 54.3822 14.872C54.3542 14.9 54.3495 14.9467 54.3682 15.012C54.6295 16.1693 55.0635 16.748 55.6702 16.748C55.9688 16.748 56.3655 16.5753 56.8602 16.23C57.3642 15.8847 57.8962 15.3807 58.4562 14.718C58.5215 14.6527 58.5822 14.62 58.6382 14.62C58.6848 14.62 58.7082 14.648 58.7082 14.704C58.7082 14.7507 58.6755 14.8207 58.6102 14.914C58.3395 15.2407 58.0222 15.5813 57.6582 15.936C57.3035 16.2813 56.9348 16.5753 56.5522 16.818C56.1695 17.0513 55.8008 17.168 55.4462 17.168ZM54.6342 14.648C55.0542 14.648 55.6048 14.4753 56.2862 14.13C57.0702 13.738 57.4622 13.3227 57.4622 12.884C57.4622 12.8093 57.4202 12.7347 57.3362 12.66C57.2522 12.5853 57.1635 12.548 57.0702 12.548C56.5662 12.548 55.9782 12.744 55.3062 13.136C54.5688 13.584 54.1208 14.074 53.9622 14.606C54.0648 14.606 54.1955 14.6153 54.3542 14.634C54.5222 14.6433 54.6155 14.648 54.6342 14.648ZM77.0667 12.184C76.908 12.184 76.768 12.1327 76.6467 12.03C76.5347 11.9273 76.4787 11.8107 76.4787 11.68C76.4787 11.4187 76.656 11.288 77.0107 11.288C77.1413 11.288 77.272 11.3347 77.4027 11.428C77.5333 11.512 77.5987 11.6193 77.5987 11.75C77.5987 11.862 77.538 11.9647 77.4167 12.058C77.2953 12.142 77.1787 12.184 77.0667 12.184ZM74.4767 17.154C74.2713 17.154 74.1033 17.0887 73.9727 16.958C73.8327 16.818 73.7627 16.5753 73.7627 16.23C73.7627 16.034 73.8093 15.81 73.9027 15.558C73.9867 15.2967 74.094 15.0353 74.2247 14.774C74.3647 14.5127 74.5 14.2793 74.6307 14.074C75.1533 13.2247 75.5827 12.7953 75.9187 12.786C76.0027 12.786 76.1053 12.8233 76.2267 12.898C76.348 12.9633 76.4087 13.038 76.4087 13.122C76.4087 13.122 76.054 13.5793 75.3447 14.494C74.6447 15.3993 74.2947 16.0433 74.2947 16.426C74.2947 16.7247 74.4113 16.874 74.6447 16.874C74.794 16.874 74.9853 16.8133 75.2187 16.692C75.4613 16.5613 75.7133 16.398 75.9747 16.202C76.236 16.006 76.4833 15.796 76.7167 15.572C76.9593 15.348 77.1553 15.1427 77.3047 14.956C77.398 14.8347 77.4773 14.7507 77.5427 14.704C77.6173 14.6573 77.664 14.634 77.6827 14.634C77.72 14.634 77.7387 14.662 77.7387 14.718C77.7387 14.7647 77.6827 14.858 77.5707 14.998C77.468 15.138 77.3233 15.3013 77.1367 15.488C76.9127 15.712 76.6653 15.9547 76.3947 16.216C76.124 16.4773 75.83 16.7013 75.5127 16.888C75.1953 17.0653 74.85 17.154 74.4767 17.154ZM78.7409 17.028C78.3022 17.028 77.9755 16.8833 77.7609 16.594C77.5555 16.3047 77.3875 15.9033 77.2569 15.39C77.0889 15.558 76.9722 15.642 76.9069 15.642C76.8602 15.642 76.8369 15.6047 76.8369 15.53C76.8369 15.474 76.8602 15.4227 76.9069 15.376C76.9069 15.376 77.0235 15.2313 77.2569 14.942C77.4995 14.6527 77.9055 14.2467 78.4749 13.724L80.2389 12.072C80.4815 11.8387 80.6729 11.6613 80.8129 11.54C80.9622 11.4187 81.0695 11.358 81.1349 11.358C81.4335 11.358 81.5829 11.47 81.5829 11.694C81.5829 11.806 81.5222 11.9367 81.4009 12.086C81.3075 12.198 81.2375 12.2867 81.1909 12.352C81.1535 12.408 81.1302 12.4407 81.1209 12.45C80.9529 12.7393 80.7989 13.2573 80.6589 14.004C80.5562 14.5547 80.4675 15.0073 80.3929 15.362C80.3182 15.7167 80.2575 15.9733 80.2109 16.132C80.6029 16.1227 80.9902 16.0013 81.3729 15.768C81.7555 15.5347 82.1662 15.152 82.6049 14.62C82.6235 14.6013 82.6515 14.5733 82.6889 14.536C82.7262 14.4987 82.7635 14.48 82.8009 14.48C82.8569 14.48 82.8849 14.5033 82.8849 14.55C82.8849 14.5967 82.8709 14.6433 82.8429 14.69C82.8149 14.7367 82.7869 14.7787 82.7589 14.816C82.4695 15.1613 82.1989 15.446 81.9469 15.67C81.6949 15.8847 81.4289 16.0573 81.1489 16.188C80.8689 16.3093 80.5375 16.412 80.1549 16.496L79.7069 16.79C79.5855 16.874 79.4409 16.9347 79.2729 16.972C79.1049 17.0093 78.9275 17.028 78.7409 17.028ZM78.9089 16.314C79.1235 16.314 79.3009 16.2627 79.4409 16.16C79.5435 16.104 79.6415 15.95 79.7349 15.698C79.8375 15.4367 79.9355 15.1147 80.0289 14.732C80.1035 14.4053 80.1595 14.088 80.1969 13.78C80.2435 13.4627 80.2855 13.1593 80.3229 12.87L80.3789 12.394C80.1642 12.5527 79.8935 12.7813 79.5669 13.08C79.2402 13.3787 78.9182 13.6913 78.6009 14.018C78.2835 14.3447 78.0782 14.5873 77.9849 14.746C77.8915 14.8953 77.8402 15.0073 77.8309 15.082C77.7935 15.4553 77.8822 15.754 78.0969 15.978C78.3209 16.202 78.5915 16.314 78.9089 16.314ZM82.8761 17.182C82.5774 17.182 82.3068 17.0887 82.0641 16.902C81.8214 16.706 81.7001 16.4493 81.7001 16.132C81.7001 15.4693 82.1061 14.7133 82.9181 13.864C83.7488 13.0053 84.4908 12.576 85.1441 12.576C85.3588 12.576 85.5314 12.6367 85.6621 12.758C85.8021 12.87 85.8721 13.01 85.8721 13.178C85.8721 13.7007 85.4568 14.214 84.6261 14.718C83.8888 15.166 83.2681 15.39 82.7641 15.39C82.6894 15.39 82.6241 15.3807 82.5681 15.362C82.4281 15.614 82.3581 15.88 82.3581 16.16C82.3581 16.6453 82.5868 16.888 83.0441 16.888C83.5108 16.888 84.1128 16.5753 84.8501 15.95C85.4194 15.4927 85.9048 15.0073 86.3061 14.494C86.3901 14.382 86.4648 14.326 86.5301 14.326C86.5861 14.326 86.6141 14.354 86.6141 14.41C86.6141 14.466 86.5768 14.5453 86.5021 14.648C86.2408 14.9933 85.9608 15.3107 85.6621 15.6C85.3634 15.8893 85.0414 16.1553 84.6961 16.398C83.9774 16.9207 83.3708 17.182 82.8761 17.182ZM82.9601 15.082C83.3148 15.082 83.7768 14.9047 84.3461 14.55C84.5328 14.4193 84.7148 14.2747 84.8921 14.116C85.0788 13.948 85.2281 13.78 85.3401 13.612C85.4614 13.444 85.5221 13.2947 85.5221 13.164C85.5221 13.0427 85.4241 12.982 85.2281 12.982C84.9481 12.982 84.5561 13.192 84.0521 13.612C83.8094 13.8173 83.5761 14.0413 83.3521 14.284C83.1281 14.5267 82.9368 14.7833 82.7781 15.054C82.8341 15.0727 82.8948 15.082 82.9601 15.082Z" fill="white"/>
<path d="M61.1239 18.568C60.9559 18.568 60.8719 18.4607 60.8719 18.246C60.8719 18.0407 60.9559 17.7793 61.1239 17.462L63.8259 13.57C64.6566 12.3753 65.2726 11.3953 65.6739 10.63C66.0753 9.86467 66.2759 9.32333 66.2759 9.006C66.2759 8.85667 66.2199 8.74467 66.1079 8.67C65.9959 8.59533 65.8653 8.544 65.7159 8.516C65.5666 8.488 65.4266 8.474 65.2959 8.474C64.5026 8.474 63.3966 8.95933 61.9779 9.93C61.5766 10.2007 61.2079 10.504 60.8719 10.84C60.5359 11.176 60.2233 11.5353 59.9339 11.918C59.3739 12.6833 59.0939 13.3273 59.0939 13.85C59.0939 14.2513 59.2806 14.494 59.6539 14.578C59.7939 14.6153 59.9526 14.634 60.1299 14.634C60.4659 14.634 60.8019 14.55 61.1379 14.382C61.4739 14.214 61.8006 13.9993 62.1179 13.738C62.3606 13.5327 62.5006 13.43 62.5379 13.43C62.5753 13.43 62.5893 13.4627 62.5799 13.528C62.5239 13.724 62.3886 13.9107 62.1739 14.088C61.9593 14.2653 61.7026 14.4287 61.4039 14.578C61.1053 14.718 60.8019 14.83 60.4939 14.914C60.1953 14.9887 59.9293 15.026 59.6959 15.026C59.3226 15.026 58.9959 14.9327 58.7159 14.746C58.4359 14.55 58.2959 14.2653 58.2959 13.892C58.2959 13.3227 58.6273 12.6227 59.2899 11.792C59.9246 10.9893 60.7086 10.2753 61.6419 9.65C62.0246 9.38867 62.4726 9.14133 62.9859 8.908C63.4993 8.66533 64.0173 8.46933 64.5399 8.32C65.0626 8.16133 65.5293 8.082 65.9399 8.082C66.6773 8.082 67.0459 8.32467 67.0459 8.81C67.0459 9.398 66.6026 10.4107 65.7159 11.848C65.0906 12.8373 64.2646 14.0133 63.2379 15.376C62.3886 16.5053 61.9593 17.07 61.9499 17.07C61.9779 17.07 62.4259 16.5893 63.2939 15.628C63.8259 15.0307 64.3253 14.4987 64.7919 14.032C65.2679 13.556 65.7066 13.1407 66.1079 12.786C66.3039 12.6087 66.5419 12.3893 66.8219 12.128C67.1019 11.8573 67.4286 11.5447 67.8019 11.19C68.1286 10.8913 68.4459 10.6207 68.7539 10.378C69.0713 10.1353 69.3606 10.014 69.6219 10.014C69.8926 10.014 70.0699 10.0793 70.1539 10.21C69.2953 11.274 68.4926 12.576 67.7459 14.116C67.2139 15.2173 66.9479 16.0527 66.9479 16.622C66.9479 16.958 67.0366 17.2007 67.2139 17.35C67.3913 17.4993 67.6246 17.574 67.9139 17.574C68.2313 17.574 68.5626 17.4853 68.9079 17.308C69.2626 17.1307 69.6126 16.902 69.9579 16.622C70.3033 16.342 70.6253 16.048 70.9239 15.74C71.9973 14.6573 72.8513 13.486 73.4859 12.226C73.9806 11.2367 74.2279 10.448 74.2279 9.86C74.2279 9.804 74.2233 9.75267 74.2139 9.706C74.2139 9.65933 74.2093 9.61733 74.1999 9.58C74.0039 9.58 73.7939 9.47733 73.5699 9.272C73.4299 9.16 73.3599 9.04333 73.3599 8.922C73.3599 8.81 73.4066 8.71667 73.4999 8.642C73.5933 8.56733 73.7006 8.53 73.8219 8.53C73.9993 8.53 74.1299 8.60933 74.2139 8.768C74.2513 8.84267 74.3259 8.936 74.4379 9.048C74.5126 9.12267 74.5453 9.17867 74.5359 9.216C74.5919 9.3 74.6853 9.342 74.8159 9.342C74.9466 9.342 75.0679 9.286 75.1799 9.174C75.3013 9.062 75.4319 9.006 75.5719 9.006C75.6466 9.006 75.6839 9.034 75.6839 9.09C75.6839 9.19267 75.5953 9.29067 75.4179 9.384C75.3246 9.44933 75.2126 9.49133 75.0819 9.51C75.0073 9.51933 74.9326 9.52867 74.8579 9.538C74.7833 9.538 74.7086 9.52867 74.6339 9.51C74.7459 9.88333 74.8019 10.1587 74.8019 10.336C74.8019 11.0827 74.4473 12.0487 73.7379 13.234C73.3833 13.8313 72.9773 14.396 72.5199 14.928C72.0626 15.46 71.5493 15.9593 70.9799 16.426C69.8506 17.378 68.8473 17.854 67.9699 17.854C67.0086 17.854 66.5279 17.406 66.5279 16.51C66.5279 16.09 66.6166 15.614 66.7939 15.082C66.9713 14.5407 67.1813 14.004 67.4239 13.472L68.4319 11.274C68.0213 11.5913 67.6853 11.8527 67.4239 12.058C67.1719 12.254 66.9573 12.422 66.7799 12.562C66.6119 12.702 66.4486 12.8467 66.2899 12.996C66.1406 13.136 65.9586 13.3087 65.7439 13.514C65.5106 13.7473 65.1979 14.0833 64.8059 14.522C64.4139 14.9513 63.9566 15.488 63.4339 16.132L61.8099 18.12C61.7166 18.232 61.6093 18.3347 61.4879 18.428C61.3666 18.5213 61.2453 18.568 61.1239 18.568Z" fill="#3BC3D8"/>
</svg>
